<mxfile>
    <diagram>
        <mxGraphModel dx="320" dy="200" pageWidth="320" pageHeight="200">
            <root>
                <mxCell id="0">
                </mxCell>
                <mxCell id="1" parent="0">
                </mxCell>
                <mxCell id="2" vertex="1" parent="0" style = "fillColor=#800000;">
                    <mxGeometry x="30" y="100" width="40" height="80" as="geometry">
                    </mxGeometry>
                </mxCell>
                <mxCell id="6" vertex="1" parent="0" style = "fillColor=#008000;">
                    <mxGeometry x="80" y="20" width="40" height="160" as="geometry">
                    </mxGeometry>
                </mxCell>
                <mxCell id="7" vertex="1" parent="0" style = "fillColor=#000080;">
                    <mxGeometry x="130" y="140" width="40" height="40" as="geometry">
                    </mxGeometry>
                </mxCell>
                <mxCell id="9" vertex="1" parent="0" value="T1" style = "text=;strokeColor=none;">
                    <mxGeometry x="25" y="185" width="50" height="10" as="geometry">
                    </mxGeometry>
                </mxCell>
                <mxCell id="10" vertex="1" parent="0" value="T2" style = "text=;strokeColor=none;">
                    <mxGeometry x="75" y="185" width="50" height="10" as="geometry">
                    </mxGeometry>
                </mxCell>
                <mxCell id="20" vertex="1" parent="0" value="T3" style = "text=;strokeColor=none;">
                    <mxGeometry x="125" y="185" width="50" height="10" as="geometry">
                    </mxGeometry>
                </mxCell>
                <mxCell id="24" vertex="1" parent="0" value="Task Deadlines" style = "text=;strokeColor=none;">
                    <mxGeometry x="0" y="5" width="200" height="10" as="geometry">
                    </mxGeometry>
                </mxCell>
            </root>
        </mxGraphModel>
    </diagram>
</mxfile>
